<?xml version="1.0" standalone="no"?>
<!DOCTYPE svg PUBLIC "-//W3C//DTD SVG 20010904//EN"
 "http://www.w3.org/TR/2001/REC-SVG-20010904/DTD/svg10.dtd">
<svg version="1.0" xmlns="http://www.w3.org/2000/svg"
 width="1080.000000pt" height="1920.000000pt" viewBox="0 0 1080.000000 1920.000000"
 preserveAspectRatio="xMidYMid meet">

<g transform="translate(0.000000,1920.000000) scale(0.100000,-0.100000)"
fill="#000000" stroke="none">
<path d="M6575 12704 c-82 -13 -184 -28 -225 -33 -179 -23 -213 -54 -349 -321
-93 -184 -205 -379 -224 -392 -6 -3 -21 -2 -34 3 -57 22 -160 39 -231 39 -106
0 -183 -25 -276 -87 -51 -35 -61 -38 -71 -24 -10 17 -112 24 -175 13 -74 -14
-139 -44 -195 -94 -41 -36 -47 -38 -112 -38 -225 -2 -418 -131 -520 -349 -56
-119 -73 -202 -73 -348 0 -155 19 -353 36 -380 17 -27 56 -30 75 -7 10 12 10
44 1 167 -23 294 -11 403 63 553 42 87 144 188 230 228 51 25 65 27 148 23 51
-2 102 -7 113 -11 18 -7 27 0 54 39 17 25 57 62 87 83 49 32 65 37 129 40 59
3 82 0 117 -17 24 -12 49 -21 56 -21 7 0 38 20 69 44 77 59 108 74 190 88 113
19 252 -14 271 -65 6 -16 -3 -44 -35 -109 -51 -101 -55 -128 -21 -128 34 0 48
19 114 155 95 197 344 676 380 733 41 65 78 88 162 101 89 13 266 42 321 52
58 10 152 11 167 1 17 -11 33 -58 33 -97 0 -48 -27 -63 -146 -80 -55 -8 -126
-19 -159 -24 -33 -6 -99 -15 -146 -22 -102 -14 -86 5 -220 -254 -210 -406
-214 -414 -201 -427 10 -10 19 -9 45 2 19 9 63 15 108 15 67 0 83 -4 151 -38
130 -64 217 -159 294 -321 60 -127 69 -198 55 -436 -20 -319 -23 -284 23 -288
21 -2 43 1 49 7 13 13 26 152 33 361 5 146 4 175 -15 250 -41 166 -144 334
-266 433 -65 52 -199 123 -255 133 -72 14 -73 15 -33 102 64 141 165 337 185
358 15 17 39 24 106 32 328 42 349 45 399 69 52 24 73 68 73 153 0 72 0 73
-44 116 -42 43 -45 44 -102 43 -33 -1 -126 -12 -209 -25z"/>
<path d="M4930 11383 c-8 -2 -25 -9 -37 -15 -12 -6 -36 -7 -55 -3 -18 3 -58 9
-88 12 -46 4 -61 1 -89 -19 -64 -43 -69 -84 -8 -59 68 27 98 30 148 14 45 -15
53 -15 100 0 70 23 78 22 155 -18 37 -19 73 -35 80 -35 48 0 -7 72 -81 106
-47 23 -91 29 -125 17z"/>
<path d="M4350 10836 c0 -44 9 -66 26 -66 8 0 14 -6 14 -14 0 -8 7 -16 15 -20
9 -3 15 0 15 8 0 8 7 16 15 20 30 11 439 -5 450 -18 24 -29 106 -43 174 -30
31 7 43 24 16 24 -8 0 -15 4 -15 9 0 12 75 13 637 15 232 0 425 -2 429 -6 4
-4 2 -14 -5 -22 -18 -21 38 -28 202 -24 l137 3 0 26 c0 15 7 32 16 39 10 9 14
26 12 49 l-3 36 -1067 3 -1068 2 0 -34z m2021 -75 c-8 -5 -20 -7 -27 -4 -6 2
-15 -1 -19 -6 -7 -12 -25 -5 -25 10 0 5 19 9 43 9 28 0 37 -3 28 -9z m69 -1
c-19 -13 -30 -13 -30 0 0 6 10 10 23 10 18 0 19 -2 7 -10z"/>
<path d="M5948 10743 c12 -2 30 -2 40 0 9 3 -1 5 -23 4 -22 0 -30 -2 -17 -4z"/>
<path d="M3375 10590 l-110 -5 -6 -30 c-12 -55 -10 -190 3 -203 8 -8 47 -12
111 -12 54 0 107 -5 118 -10 18 -10 19 -26 19 -435 0 -328 3 -426 13 -432 19
-12 237 -6 253 8 11 9 14 89 16 438 l3 426 115 5 115 5 3 117 c3 115 2 118
-20 122 -34 8 -506 12 -633 6z"/>
<path d="M7273 10590 c-23 -9 -23 -12 -23 -208 0 -141 -3 -201 -12 -210 -14
-14 -234 -17 -242 -4 -3 5 -8 98 -11 207 -3 109 -8 202 -11 207 -3 4 -61 8
-129 8 -105 0 -124 -2 -129 -16 -8 -22 -9 -1074 -1 -1095 12 -31 243 -35 263
-5 4 6 7 100 7 208 0 128 4 201 11 208 7 7 54 10 130 8 l119 -3 5 -215 5 -215
135 0 135 0 6 45 c4 25 7 273 8 551 1 414 -1 508 -12 517 -18 15 -225 25 -254
12z"/>
<path d="M4115 10581 c-11 -18 -11 -1092 0 -1108 8 -11 37 -13 130 -11 l120 3
3 192 c2 185 3 192 23 198 13 5 27 1 36 -8 9 -8 55 -98 103 -199 l87 -183 44
-8 c66 -12 239 2 239 19 0 14 -30 77 -127 269 -87 171 -86 156 -14 225 87 83
111 139 111 258 0 79 -4 101 -25 146 -35 73 -100 137 -181 177 l-68 34 -237 3
c-159 2 -239 0 -244 -7z m417 -242 c13 -5 35 -26 48 -46 47 -69 25 -174 -44
-207 -40 -19 -137 -21 -154 -4 -13 13 -18 249 -5 261 10 11 130 8 155 -4z"/>
<path d="M4974 10576 c-3 -7 -4 -199 -2 -427 l3 -414 27 -57 c49 -105 135
-174 272 -218 52 -17 196 -8 259 16 67 26 135 80 180 144 69 99 71 112 74 520
2 201 0 383 -4 405 l-9 40 -118 3 c-73 2 -123 -1 -131 -8 -10 -8 -14 -98 -17
-388 -5 -429 -4 -428 -82 -463 -53 -23 -99 -13 -141 31 -39 41 -44 91 -44 486
-1 235 -4 323 -13 332 -18 18 -247 17 -254 -2z"/>
<path d="M5859 10569 c-17 -32 -8 -207 11 -220 8 -5 61 -9 118 -9 56 0 102 -1
103 -2 0 -2 3 -196 6 -433 4 -385 6 -431 21 -443 21 -16 233 -5 244 12 4 6 8
198 8 426 0 228 4 420 8 427 5 8 47 13 127 15 l120 3 0 120 0 120 -377 3 -377
2 -12 -21z"/>
<path d="M6545 10238 c-5 -15 -24 -198 -55 -518 -11 -118 -29 -264 -40 -325
-39 -213 -40 -229 -22 -242 34 -27 79 -7 86 40 32 196 72 484 85 617 5 52 15
145 21 205 7 61 10 137 9 170 l-4 60 -38 3 c-24 2 -39 -1 -42 -10z"/>
<path d="M4280 9361 c-7 -14 -7 -44 0 -98 17 -130 15 -125 63 -121 l42 3 -2
91 c-3 122 -12 144 -57 144 -25 0 -38 -6 -46 -19z"/>
<path d="M5224 9351 c-64 -29 -96 -78 -97 -148 -3 -105 54 -168 148 -166 101
3 165 64 165 157 -1 124 -112 205 -216 157z m109 -81 c34 -27 44 -78 23 -118
-30 -59 -82 -68 -127 -23 -38 39 -39 87 -3 130 31 37 69 41 107 11z"/>
<path d="M5488 9348 c-2 -7 -2 -78 1 -158 6 -141 7 -145 28 -148 17 -3 26 3
33 23 5 14 9 29 9 33 -9 56 25 54 50 -3 14 -32 27 -46 46 -51 44 -11 52 9 27
61 -27 55 -27 56 -2 85 22 25 27 88 10 121 -6 10 -24 26 -40 34 -36 19 -156
21 -162 3z m136 -70 c14 -23 -3 -52 -32 -56 -29 -4 -51 40 -32 63 16 20 49 16
64 -7z"/>
<path d="M4373 9062 l-23 -3 -2 -322 c-4 -397 1 -867 8 -879 6 -9 234 -11 258
-2 14 5 16 32 16 194 0 104 3 195 6 204 6 17 40 21 61 8 7 -4 24 -35 38 -67
22 -49 91 -197 149 -315 12 -25 13 -25 154 -28 111 -2 144 0 148 11 2 7 -16
55 -42 107 -108 221 -164 341 -164 354 0 8 10 20 23 28 40 27 95 89 124 142
26 48 28 58 28 166 0 106 -2 119 -28 172 -37 74 -120 151 -204 191 -73 34 -73
34 -383 40 -80 1 -155 1 -167 -1z m420 -276 c56 -24 80 -59 84 -124 7 -104
-44 -159 -155 -169 -88 -8 -92 -1 -92 156 0 85 4 131 12 139 16 16 111 15 151
-2z"/>
<path d="M6805 9056 c-13 -9 -16 -90 -22 -591 -6 -542 -5 -581 11 -598 15 -14
37 -17 136 -17 108 0 120 2 130 19 6 12 10 106 10 235 0 135 4 216 10 216 5 0
20 -17 33 -37 48 -77 122 -201 184 -310 78 -137 79 -137 260 -130 68 3 127 7
129 10 11 10 -8 49 -65 135 -103 156 -293 463 -298 481 -3 12 25 64 73 137 43
66 124 190 181 277 57 87 101 162 98 167 -4 6 -71 10 -154 10 -170 0 -156 7
-221 -110 -77 -137 -203 -330 -217 -330 -10 0 -13 44 -13 215 0 164 -3 217
-12 220 -35 10 -239 12 -253 1z"/>
<path d="M3317 8908 c-11 -248 -8 -1027 3 -1049 10 -18 23 -19 178 -19 92 0
196 5 231 11 228 37 436 227 489 449 30 127 22 274 -20 390 -47 126 -153 244
-270 303 -117 59 -165 67 -399 67 l-206 0 -6 -152z m450 -146 c59 -31 122 -98
149 -159 21 -46 25 -72 25 -149 0 -80 -4 -101 -26 -148 -30 -63 -94 -131 -142
-151 -19 -8 -62 -16 -96 -17 l-62 -3 -3 315 c-1 173 0 321 3 329 8 19 100 9
152 -17z"/>
<path d="M5749 9044 c-21 -25 -30 -305 -26 -767 3 -342 6 -410 18 -418 22 -14
232 -11 252 4 15 11 17 44 19 307 3 245 5 295 17 295 8 0 57 -74 109 -165 52
-91 118 -205 147 -255 29 -49 63 -111 76 -137 12 -25 33 -51 46 -57 33 -15
216 -14 231 1 14 14 17 1174 4 1196 -7 9 -41 12 -137 10 l-129 -3 -8 -35 c-4
-19 -7 -159 -6 -310 1 -310 -3 -326 -58 -223 -99 187 -142 265 -176 321 -21
34 -38 64 -38 66 0 8 -84 151 -98 169 -21 24 -222 26 -243 1z"/>
<path d="M5422 8932 c-112 -3 -113 -3 -123 -30 -16 -39 -2 -1034 14 -1044 7
-4 65 -8 129 -8 106 0 118 2 128 20 7 13 9 191 8 536 -3 507 -3 517 -23 523
-11 3 -71 5 -133 3z"/>
<path d="M6290 7796 c0 -74 31 -187 99 -366 32 -85 29 -105 -25 -143 -70 -49
-249 -113 -387 -138 -256 -46 -325 -52 -562 -53 -181 0 -268 4 -355 17 -179
27 -268 47 -410 93 -119 39 -202 82 -226 119 -20 31 -16 49 51 220 28 72 48
138 49 165 l1 45 -45 0 c-42 0 -45 -2 -53 -35 -5 -19 -30 -96 -55 -170 -36
-105 -46 -150 -46 -202 -1 -65 0 -68 39 -108 46 -47 99 -74 245 -123 153 -52
441 -106 571 -108 30 0 90 -6 133 -13 85 -14 107 -14 201 2 33 6 110 13 170
17 105 6 166 15 355 50 187 35 385 123 433 192 40 57 38 95 -18 260 -25 76
-49 158 -52 183 -5 37 -15 53 -52 88 -24 23 -48 42 -53 42 -4 0 -8 -15 -8 -34z"/>
<path d="M4745 7760 c3 -5 8 -10 11 -10 2 0 4 5 4 10 0 6 -5 10 -11 10 -5 0
-7 -4 -4 -10z"/>
<path d="M6080 7702 c0 -28 2 -27 18 4 9 16 8 21 -4 21 -8 0 -14 -10 -14 -25z"/>
<path d="M5155 7650 c3 -5 13 -10 21 -10 8 0 12 5 9 10 -3 6 -13 10 -21 10 -8
0 -12 -4 -9 -10z"/>
<path d="M5678 7653 c7 -3 16 -2 19 1 4 3 -2 6 -13 5 -11 0 -14 -3 -6 -6z"/>
<path d="M6080 7634 c0 -15 3 -23 8 -18 4 5 10 11 13 14 4 3 1 11 -7 18 -12
11 -14 8 -14 -14z"/>
<path d="M5218 7633 c10 -4 10 -8 1 -19 -9 -11 -8 -18 1 -29 26 -31 81 1 67
39 -4 11 -18 16 -44 15 -21 0 -32 -3 -25 -6z"/>
<path d="M5674 7632 c-9 -5 -8 -10 2 -19 9 -9 15 -9 19 -2 4 6 17 14 29 19 19
8 18 9 -9 9 -16 0 -35 -3 -41 -7z"/>
<path d="M4695 7620 c-11 -4 -23 -6 -27 -3 -5 2 -8 -12 -8 -31 0 -22 -11 -51
-30 -80 -44 -65 -48 -99 -15 -132 19 -19 30 -23 37 -16 8 8 19 7 37 -2 82 -43
137 -56 155 -39 4 4 22 6 41 5 18 -2 36 1 39 7 8 13 -36 25 -69 19 -35 -7 -31
4 7 21 28 13 30 15 12 21 -10 4 -22 3 -25 -2 -10 -16 -51 -5 -63 17 -6 11 -15
23 -21 27 -6 5 -3 8 7 8 9 0 19 6 21 13 3 6 6 0 6 -15 1 -23 6 -28 27 -28 17
0 23 4 18 13 -4 6 1 5 11 -4 13 -13 30 -16 79 -12 85 8 90 19 10 28 -79 8 -94
13 -94 29 0 22 22 37 37 24 11 -9 19 -7 36 10 l21 22 -37 0 c-27 0 -37 4 -37
16 0 8 -4 12 -10 9 -6 -4 -10 8 -10 29 0 31 -3 36 -24 36 -33 0 -43 -17 -44
-79 -1 -32 -6 -57 -13 -62 -16 -10 -29 -2 -29 17 0 9 5 12 11 8 8 -5 8 -1 0
14 -6 11 -11 37 -11 57 0 43 -18 65 -45 55z m132 -182 c-3 -8 -6 -5 -6 6 -1
11 2 17 5 13 3 -3 4 -12 1 -19z"/>
<path d="M5165 7620 c3 -5 11 -10 16 -10 6 0 7 5 4 10 -3 6 -11 10 -16 10 -6
0 -7 -4 -4 -10z"/>
<path d="M4751 7584 c0 -11 3 -14 6 -6 3 7 2 16 -1 19 -3 4 -6 -2 -5 -13z"/>
<path d="M6023 7576 l-23 -13 26 -22 c14 -12 28 -20 32 -17 3 3 2 6 -3 6 -4 0
-2 6 4 14 11 13 5 47 -8 45 -3 -1 -16 -7 -28 -13z"/>
<path d="M6091 7568 c-9 -15 -9 -23 0 -34 8 -10 9 -18 0 -27 -20 -25 -21 -81
0 -107 13 -18 19 -20 19 -9 0 8 -5 20 -12 27 -9 9 -9 15 0 24 7 7 12 22 12 34
0 13 4 25 8 28 5 3 9 21 10 40 2 40 -19 53 -37 24z"/>
<path d="M5490 7555 c0 -8 7 -15 15 -15 8 0 15 7 15 15 0 8 -7 15 -15 15 -8 0
-15 -7 -15 -15z"/>
<path d="M5923 7527 c4 -10 7 -32 7 -48 0 -16 5 -29 10 -29 17 0 11 60 -7 78
-16 16 -16 16 -10 -1z"/>
<path d="M6167 7513 c-3 -4 -8 -29 -12 -56 -9 -56 4 -77 46 -77 26 0 29 3 29
35 0 19 -4 35 -10 35 -5 0 -10 5 -10 11 0 16 -38 61 -43 52z"/>
<path d="M5521 7483 c-8 -16 -4 -18 32 -18 39 0 42 -2 42 -27 -1 -20 4 -28 17
-28 13 0 18 8 18 30 0 26 -5 31 -30 37 -17 3 -33 10 -36 14 -9 15 -33 10 -43
-8z"/>
<path d="M5353 7438 c2 -7 19 -13 38 -13 19 0 40 -4 47 -9 8 -5 18 -4 25 3 8
8 6 11 -8 12 -11 1 -4 5 15 9 27 6 18 8 -43 9 -59 1 -78 -2 -74 -11z"/>
<path d="M5710 7415 c-6 -8 -9 -23 -5 -36 6 -19 12 -21 58 -16 28 2 53 10 55
16 2 6 8 8 14 5 6 -4 9 -1 6 7 -6 19 -36 23 -54 8 -12 -10 -12 -14 -2 -22 9
-6 8 -7 -5 -3 -10 3 -27 6 -38 6 -28 0 -25 37 4 43 21 4 21 4 1 6 -12 0 -27
-6 -34 -14z"/>
<path d="M5930 7415 c7 -8 19 -15 27 -15 13 0 13 3 3 15 -7 8 -19 15 -27 15
-13 0 -13 -3 -3 -15z"/>
<path d="M4916 7385 c-18 -14 -18 -15 8 -25 15 -5 36 -10 46 -10 11 0 23 -7
28 -16 13 -24 94 -31 111 -10 7 9 23 16 35 16 31 0 76 -22 76 -37 0 -7 9 -13
20 -13 11 0 20 7 20 15 0 8 7 15 15 15 8 0 15 5 15 10 0 6 -11 10 -25 10 -20
0 -25 5 -25 24 0 33 -17 42 -40 21 -10 -9 -23 -14 -28 -11 -6 3 -23 -1 -38 -9
-37 -19 -54 -19 -81 0 -14 10 -24 12 -28 5 -11 -17 -43 -11 -50 10 -7 23 -32
25 -59 5z"/>
<path d="M6015 7380 c-10 -11 -26 -20 -37 -20 -10 0 -18 -4 -18 -10 0 -16 57
-12 63 4 4 9 14 12 26 9 26 -7 28 13 2 26 -14 8 -23 6 -36 -9z"/>
<path d="M6080 7355 c0 -16 16 -20 24 -6 3 5 -1 11 -9 15 -9 3 -15 0 -15 -9z"/>
<path d="M5900 7336 c0 -8 4 -17 9 -20 5 -4 7 3 4 14 -6 23 -13 26 -13 6z"/>
<path d="M5737 7311 c-4 -18 0 -21 25 -21 23 0 29 4 26 18 -5 25 -44 28 -51 3z"/>
<path d="M5948 7313 c7 -3 16 -2 19 1 4 3 -2 6 -13 5 -11 0 -14 -3 -6 -6z"/>
<path d="M5030 7279 c0 -5 5 -7 10 -4 6 3 10 1 10 -5 0 -6 5 -8 10 -5 6 4 8
11 5 16 -8 12 -35 11 -35 -2z"/>
<path d="M5163 7275 c0 -8 9 -15 20 -15 16 0 17 3 7 15 -7 8 -16 15 -20 15 -3
0 -7 -7 -7 -15z"/>
</g>
</svg>
